<?xml version="1.0" encoding="utf-8"?>
<svg version="1.0" xmlns="http://www.w3.org/2000/svg"
                width="161.000000pt" height="135.000000pt" viewBox="0 0 161.000000 150.000000"
     fill="#000000"
                preserveAspectRatio="xMidYMid meet">

    <!-- Aggiungi questo rettangolo come sfondo -->
        <rect width="100%" height="100%" fill="#fff" rx="30" ry="30"/>

        <g transform="translate(-15.000000,155.000000) scale(0.120000,-0.120000)" stroke="none">
            <path d="M590 1163 c-18 -54 -43 -130 -57 -168 l-24 -71 -136 -59 -136 -60 44
-8 c24 -5 145 -9 269 -9 218 -1 393 13 705 55 l90 12 -82 19 -83 19 -36 117
-37 117 -232 66 c-127 37 -236 67 -242 67 -6 0 -25 -44 -43 -97z"/>
            <path stroke="#000" stroke-width="30" d="M620 723 c-31 -6 -36 -11 -44 -46 l-7 -28 71 36 c38 19 70 37 70 40
0 6 -53 4 -90 -2z"/>
            <path d="M975 654 c-143 -41 -266 -76 -273 -79 -9 -3 6 -41 48 -126 34 -67 60
-123 58 -125 -2 -2 -37 30 -78 71 -63 63 -80 75 -108 75 -44 0 -50 -21 -23
-76 33 -69 28 -81 -33 -93 -29 -6 -22 -12 124 -101 85 -51 165 -100 176 -107
21 -13 27 -3 184 279 89 161 171 308 182 326 11 17 16 32 11 31 -4 0 -125 -34
-268 -75z"/>
        </g>
    </svg>